<?xml version="1.0" encoding="utf-8"?>
<svg width="400.01" height="400.008" viewBox="0 0 400.01 400.008" fill="none" xmlns="http://www.w3.org/2000/svg">
  <g id="Logo">
    <path id="Shape" d="M59.0162 0L32 0C14.3245 0 0 14.3245 0 32L0 295.878C0 313.553 14.3245 327.878 32 327.878L295.878 327.878C313.553 327.878 327.878 313.553 327.878 295.878L327.878 268.862L75.0162 268.862C66.1785 268.862 59.0162 261.699 59.0162 252.862L59.0162 0Z" fill="#79688E" fill-rule="evenodd" transform="translate(0 72.13)" />
    <path id="Shape" d="M59.0163 0L32 0C14.3245 0 0 14.3245 0 32L3.05176e-05 295.878C3.05176e-05 313.553 14.3245 327.878 32 327.878L295.878 327.878C313.553 327.878 327.878 313.553 327.878 295.878L327.878 268.862L75.0163 268.862C66.1786 268.862 59.0163 261.699 59.0163 252.862L59.0163 0Z" fill="#79688E" fill-rule="evenodd" transform="matrix(-1 0 -0 -1 400.01 327.878)" />
    <path id="Rectangle" d="M205.704 0C223.38 0 237.704 14.3245 237.704 32L237.704 33.5738C237.704 51.2493 223.38 65.5738 205.704 65.5738L32 65.5738C14.3245 65.5738 0 51.2493 0 33.5738L0 32C0 14.3245 14.3245 0 32 0L205.704 0Z" fill="#79688E" transform="translate(81.967 167.212)" />
  </g>
</svg>